<?xml version="1.0" encoding="utf-8"?>
<!-- Svg Vector Icons : http://www.onlinewebfonts.com/icon -->
<!DOCTYPE svg PUBLIC "-//W3C//DTD SVG 1.1//EN" "http://www.w3.org/Graphics/SVG/1.1/DTD/svg11.dtd">
<svg version="1.1" xmlns="http://www.w3.org/2000/svg" xmlns:xlink="http://www.w3.org/1999/xlink" x="0px" y="0px" fill="white" viewBox="0 0 1000 1000" enable-background="new 0 0 1000 1000" xml:space="preserve">
<g><g transform="translate(0.000000,512.000000) scale(0.100000,-0.100000)"><path d="M4526.4,5010.3C3049,4859,1734.5,4067.6,901,2823.9c-306.6-459.9-594-1144-703.2-1682.4C115.3,735.3,100,576.2,100,125.9c0-450.3,15.3-605.5,97.7-1015.6C305-1420.5,592.5-2106.5,901-2572.1c837.4-1253.2,2169.2-2048.4,3663.8-2188.3c442.6-40.2,561.5-21.1,615.1,105.4c34.5,86.2,15.4,172.5-51.7,228c-46,40.2-82.4,47.9-241.5,57.5c-310.4,19.2-578.7,49.8-774.2,88.1c-661.1,134.1-1278.1,413.9-1837.6,831.7c-210.8,157.1-634.3,571-793.3,774.1C839.7-1857.4,508.1-908.8,506.2,116.3c0,542.3,65.2,948.5,235.7,1448.7c228,678.3,563.4,1214.9,1082.7,1732.2c517.4,519.3,1053.9,854.6,1732.3,1082.7c500.1,170.5,906.4,235.7,1448.7,235.7c1025.2-1.9,1979.4-335.3,2791.9-975.3c180.1-141.8,571-532.7,712.8-712.8c1193.8-1513.8,1306.8-3614,279.8-5214c-116.9-182-124.6-256.8-40.2-350.7c47.9-53.7,69-63.2,141.8-63.2c109.2,0,139.9,26.8,275.9,249.1C10041.3-1043,10139,723.8,9430,2210.8c-159.1,335.3-304.7,574.9-515.5,856.6c-776.1,1034.8-1922,1715-3228.8,1916.2C5446.2,5019.9,4771.7,5037.2,4526.4,5010.3z"/><path d="M2263.4,2157.1c-82.4-32.6-122.6-111.1-122.6-237.6c1.9-419.6,277.9-852.7,670.7-1044.3c279.8-136,553.8-168.6,835.5-97.7c525,132.2,871.9,540.4,937,1096.1c15.3,138-23,230-115,272.1c-78.6,38.3-93.9,38.3-172.5,0c-76.7-34.5-124.6-126.5-124.6-231.9c0-97.7-49.8-262.5-107.3-362.2c-59.4-101.6-228-260.6-331.5-314.3c-46-23-143.7-53.7-218.4-69c-166.7-34.5-348.8-13.4-509.7,63.2c-124.6,59.4-304.7,229.9-364.1,346.8c-49.8,95.8-97.7,275.9-97.7,364.1c0,92-49.8,174.4-124.6,207C2343.9,2180.1,2320.9,2180.1,2263.4,2157.1z"/><path d="M5519,2145.6c-65.1-32.6-120.7-128.4-120.7-203.1c1.9-120.7,61.3-360.2,122.6-486.7c249.1-527,801-804.8,1362.4-687.9c540.4,113.1,965.8,620.8,967.7,1153.6c0,97.7-7.7,126.5-47.9,174.4c-126.5,151.4-354.5,51.7-354.5-153.3c0-88.1-47.9-268.3-97.7-364.1c-59.4-116.9-239.5-287.4-364.1-346.8c-331.5-157.1-697.5-84.3-952.4,185.9c-132.2,141.8-189.7,272.1-212.7,481c-19.2,157.1-46,208.9-128.4,249.1C5616.8,2183.9,5595.7,2183.9,5519,2145.6z"/><path d="M3679.5-1533.5c-55.6-28.8-120.7-124.6-120.7-180.1c0-13.4,13.4-51.7,30.7-86.2c59.4-128.4,21.1-124.6,1406.5-124.6c1385.4,0,1347.1-3.8,1406.5,124.6c38.3,78.6,38.3,93.9,0,172.5c-59.4,128.4-21.1,124.6-1410.3,124.6C3896-1502.9,3733.1-1506.7,3679.5-1533.5z"/><path d="M6132.2-2759.9c-55.6-28.7-120.7-124.6-120.7-180.1c0-44.1,57.5-143.7,99.6-172.5c34.5-23,138-30.7,481-38.3l436.9-9.6l-498.2-664.9c-274-366-504-686-509.7-710.9c-17.3-69,36.4-178.2,103.5-212.7c86.2-46,1335.6-46,1421.8,0c120.7,61.3,138,235.7,32.6,323.8l-57.5,47.9h-438.8c-241.4,0-438.8,5.8-438.8,13.4c0,5.8,224.2,310.4,496.3,674.5c274,364.1,502,686,509.7,714.7c19.2,72.8-38.3,178.2-115,214.6C7441-2713.9,6224.2-2715.8,6132.2-2759.9z"/><path d="M8146.2-3185.3c-105.4-84.3-113.1-208.9-19.2-302.8l65.1-65.2h298.9c164.8,0,298.9-5.7,298.9-11.5c0-5.8-166.7-207-371.8-446.5c-203.1-239.5-381.3-454.1-392.8-477.1c-40.2-76.7-24.9-157.1,44.1-226.1l65.1-65.2h703.3c620.9,0,709,3.8,756.9,32.6c105.4,61.3,128.4,214.6,49.8,306.6l-46,53.6l-473.3,9.6l-473.3,9.6l377.5,440.7c207,243.4,389,467.6,404.3,502.1c36.4,82.4,15.3,168.6-53.7,226.1l-57.5,47.9h-567.2C8245.8-3150.8,8182.6-3154.6,8146.2-3185.3z"/></g></g>
</svg>